# xmcd
#
# Track frame offsets:
#	150
#	17954
#	35988
#	61915
#	83688
#	105445
#	125970
#	145839
#	167110
#
# Disc length: 2466 seconds
#
# Revision: 1
# Processed by: cddbd v1.5.2PL0 Copyright (c) Steve Scherf et al.
# Submitted via: audiograbber 1.83.01
#
DISCID=7c09a009
DTITLE=Jean-Claude Naimro - Délikatès'
DYEAR=1900
DGENRE=Zouk
TTITLE0=Voisin
TTITLE1=Yo paka chanjé
TTITLE2=A tout'
TTITLE3=Ou pasé di
TTITLE4=Mizik sé vi mwen
TTITLE5=Kréoriental
TTITLE6=Menm' jou ta la
TTITLE7=Lèw' santimantal'
TTITLE8=Tchou pou tèt'
EXTD=
EXTT0=
EXTT1=
EXTT2=
EXTT3=
EXTT4=
EXTT5=
EXTT6=
EXTT7=
EXTT8=
PLAYORDER=
